<svg xmlns="http://www.w3.org/2000/svg" viewBox="0 0 800 600">
<defs><linearGradient id="bg" x1="0" y1="0" x2="1" y2="1"><stop stop-color="#0f172a"/><stop offset="1" stop-color="#1e293b"/></linearGradient><linearGradient id="screen" x1="0" y1="0" x2="1" y2="1"><stop stop-color="#60a5fa"/><stop offset="1" stop-color="#22d3ee"/></linearGradient></defs>
<rect width="800" height="600" rx="40" fill="url(#bg)"/><circle cx="690" cy="110" r="120" fill="#f97316" fill-opacity="0.25"/><rect x="270" y="70" width="250" height="460" rx="34" fill="#111827" stroke="#94a3b8" stroke-width="6"/><rect x="292" y="110" width="206" height="350" rx="20" fill="url(#screen)"/><rect x="350" y="88" width="90" height="10" rx="5" fill="#334155"/><circle cx="395" cy="496" r="20" fill="#334155"/><rect x="335" y="160" width="120" height="18" rx="9" fill="#e0f2fe" fill-opacity="0.7"/><rect x="335" y="196" width="90" height="18" rx="9" fill="#e0f2fe" fill-opacity="0.55"/><rect x="335" y="282" width="120" height="120" rx="26" fill="#0f172a" fill-opacity="0.18"/><path d="M380 305c24 0 43 19 43 43s-19 43-43 43-43-19-43-43 19-43 43-43z" fill="#fff" fill-opacity="0.9"/></svg>